<svg width="154" height="178" viewBox="0 0 154 178" fill="none" xmlns="http://www.w3.org/2000/svg">
<path d="M12 77C5.37258 77 0 82.3726 0 89C0 95.6274 5.37258 101 12 101V77ZM150.485 97.4853C155.172 92.799 155.172 85.201 150.485 80.5147L74.1177 4.14719C69.4315 -0.539105 61.8335 -0.539105 57.1472 4.14719C52.4609 8.83348 52.4609 16.4315 57.1472 21.1177L125.029 89L57.1472 156.882C52.4609 161.569 52.4609 169.167 57.1472 173.853C61.8335 178.539 69.4315 178.539 74.1177 173.853L150.485 97.4853ZM12 101H142V77H12V101Z" fill="white"/>
</svg>
